<svg width="17" height="17" viewBox="0 0 17 17" fill="none" xmlns="http://www.w3.org/2000/svg">
<g clip-path="url(#clip0_902_64)">
<path d="M7.90206 11.554C7.70985 11.554 7.53898 11.4686 7.43221 11.3405L4.20732 7.83796C3.9724 7.58169 3.99378 7.17589 4.25004 6.94097C4.50631 6.70604 4.91211 6.72742 5.14703 6.98368L7.9234 9.99498L15.6119 2.3279C15.8681 2.07163 16.2739 2.07163 16.5089 2.3279C16.7438 2.58416 16.7651 2.98996 16.5089 3.22489L8.35058 11.3618C8.24376 11.49 8.07293 11.554 7.90206 11.554Z" fill="#188E6B"/>
<path d="M8.50002 17C3.82285 17 0 13.1771 0 8.50002C0 3.82289 3.82285 0 8.50002 0C8.8631 0 9.14071 0.277645 9.14071 0.640685C9.14071 1.00372 8.86306 1.28137 8.50002 1.28137C4.52763 1.28137 1.28141 4.52759 1.28141 8.49998C1.28141 12.4724 4.52763 15.7186 8.50002 15.7186C12.4724 15.7186 15.7186 12.4724 15.7186 8.49998C15.7186 8.1369 15.9963 7.85929 16.3593 7.85929C16.7224 7.85929 17 8.13694 17 8.49998C17 13.1771 13.1771 17 8.50002 17Z" fill="#188E6B"/>
</g>
<defs>
<clipPath id="clip0_902_64">
<rect width="17" height="17" fill="white"/>
</clipPath>
</defs>
</svg>
