<svg width="36" height="36" viewBox="0 0 36 36" fill="none" xmlns="http://www.w3.org/2000/svg">
<rect width="36" height="36" rx="18" fill="#F3F3F3"/>
<g clip-path="url(#clip0_937_128)">
<path d="M23.5875 21.6975C23.3785 21.4877 23.1301 21.3213 22.8566 21.2077C22.5831 21.0942 22.2899 21.0357 21.9937 21.0357C21.6976 21.0357 21.4044 21.0942 21.1309 21.2077C20.8574 21.3213 20.609 21.4877 20.4 21.6975L19.3125 22.785C18.0881 22.0079 16.9536 21.0973 15.93 20.07C14.9048 19.0444 13.9945 17.9102 13.215 16.6875L14.3025 15.6C14.5123 15.391 14.6787 15.1426 14.7923 14.8691C14.9058 14.5956 14.9643 14.3024 14.9643 14.0062C14.9643 13.7101 14.9058 13.4169 14.7923 13.1434C14.6787 12.8699 14.5123 12.6215 14.3025 12.4125L12.18 10.2975C11.9739 10.087 11.7276 9.92015 11.4558 9.80677C11.1839 9.69339 10.892 9.63582 10.5975 9.63749C10.3009 9.63676 10.007 9.6947 9.73284 9.80797C9.45868 9.92124 9.20962 10.0876 9 10.2975L7.98 11.31C7.49383 11.8327 7.13098 12.4577 6.91812 13.1391C6.70527 13.8205 6.64782 14.541 6.75 15.2475C6.99 18.06 8.835 21.4425 11.6775 24.2925C14.52 27.1425 17.94 28.98 20.7525 29.25C20.9623 29.2612 21.1726 29.2612 21.3825 29.25C21.9879 29.2754 22.5923 29.1797 23.1603 28.9685C23.7282 28.7573 24.2483 28.4348 24.69 28.02L25.7025 27C25.9124 26.7904 26.0787 26.5413 26.192 26.2671C26.3053 25.993 26.3632 25.6991 26.3625 25.4025C26.3642 25.1079 26.3066 24.8161 26.1932 24.5442C26.0798 24.2724 25.913 24.0261 25.7025 23.82L23.5875 21.6975ZM24.645 25.9425L23.625 26.955C23.2479 27.2693 22.8076 27.4989 22.334 27.6283C21.8604 27.7577 21.3646 27.7839 20.88 27.705C18.4425 27.495 15.3375 25.77 12.7725 23.205C10.2075 20.64 8.4825 17.5575 8.25 15.12C8.16912 14.6354 8.19429 14.1391 8.32377 13.6652C8.45325 13.1913 8.68396 12.7511 9 12.375L10.0575 11.355C10.1276 11.2855 10.2107 11.2305 10.3021 11.1932C10.3934 11.1558 10.4913 11.1369 10.59 11.1375C10.6887 11.1369 10.7866 11.1558 10.8779 11.1932C10.9693 11.2305 11.0524 11.2855 11.1225 11.355L13.245 13.5C13.3847 13.6405 13.4631 13.8306 13.4631 14.0287C13.4631 14.2269 13.3847 14.417 13.245 14.5575L11.745 16.0575C11.6276 16.1743 11.5522 16.3266 11.5305 16.4908C11.5088 16.655 11.542 16.8217 11.625 16.965C12.523 18.4938 13.6145 19.9004 14.8725 21.15C16.1221 22.4079 17.5287 23.4994 19.0575 24.3975C19.2008 24.4805 19.3675 24.5137 19.5317 24.492C19.6958 24.4703 19.8482 24.3949 19.965 24.2775L21.465 22.7775C21.6055 22.6378 21.7956 22.5594 21.9937 22.5594C22.1919 22.5594 22.382 22.6378 22.5225 22.7775L24.645 24.9C24.7145 24.9701 24.7695 25.0532 24.8068 25.1446C24.8442 25.2359 24.8631 25.3338 24.8625 25.4325C24.8578 25.624 24.78 25.8065 24.645 25.9425Z" fill="#188E6B"/>
<path d="M25.95 10.0425C24.9077 8.99625 23.6686 8.16665 22.3041 7.60156C20.9397 7.03647 19.4768 6.74706 18 6.75002C17.8011 6.75002 17.6103 6.82904 17.4697 6.96969C17.329 7.11034 17.25 7.30111 17.25 7.50002C17.25 7.69893 17.329 7.8897 17.4697 8.03035C17.6103 8.171 17.8011 8.25002 18 8.25002C19.2874 8.24998 20.562 8.50488 21.7503 9.00001C22.9387 9.49514 24.0172 10.2207 24.9236 11.1348C25.8301 12.049 26.5465 13.1336 27.0316 14.326C27.5167 15.5185 27.7609 16.7952 27.75 18.0825C27.75 18.2814 27.829 18.4722 27.9697 18.6129C28.1103 18.7535 28.3011 18.8325 28.5 18.8325C28.6989 18.8325 28.8897 18.7535 29.0303 18.6129C29.171 18.4722 29.25 18.2814 29.25 18.0825C29.2644 16.59 28.9798 15.1097 28.413 13.7288C27.8463 12.348 27.0088 11.0946 25.95 10.0425Z" fill="#188E6B"/>
<path d="M21.6825 14.3325C22.1082 14.7556 22.4449 15.2595 22.6728 15.8146C22.9008 16.3698 23.0155 16.9649 23.01 17.565C23.01 17.7639 23.089 17.9547 23.2297 18.0953C23.3703 18.236 23.5611 18.315 23.76 18.315C23.9589 18.315 24.1497 18.236 24.2903 18.0953C24.431 17.9547 24.51 17.7639 24.51 17.565C24.5199 16.7708 24.3721 15.9825 24.075 15.2459C23.7779 14.5092 23.3375 13.8389 22.7794 13.2738C22.2212 12.7087 21.5565 12.26 20.8236 11.9538C20.0907 11.6476 19.3043 11.4899 18.51 11.49C18.3111 11.49 18.1203 11.569 17.9797 11.7097C17.839 11.8503 17.76 12.0411 17.76 12.24C17.76 12.4389 17.839 12.6297 17.9797 12.7703C18.1203 12.911 18.3111 12.99 18.51 12.99C19.1011 12.9944 19.6855 13.1153 20.2298 13.3456C20.7742 13.576 21.2678 13.9113 21.6825 14.3325Z" fill="#188E6B"/>
</g>
<defs>
<clipPath id="clip0_937_128">
<rect width="24" height="24" fill="white" transform="translate(6 6)"/>
</clipPath>
</defs>
</svg>
