<svg width="36" height="36" viewBox="0 0 36 36" fill="none" xmlns="http://www.w3.org/2000/svg">
<rect width="36" height="36" rx="18" fill="#F3F3F3"/>
<g clip-path="url(#clip0_937_157)">
<path d="M23.5859 16.8828C24.0606 16.8828 24.4453 16.4981 24.4453 16.0234C24.4453 15.5488 24.0606 15.1641 23.5859 15.1641C23.1113 15.1641 22.7266 15.5488 22.7266 16.0234C22.7266 16.4981 23.1113 16.8828 23.5859 16.8828Z" fill="#188E6B"/>
<path d="M25.5625 8.71875H24.4453V7.85938C24.4453 7.38474 24.0606 7 23.5859 7C23.1113 7 22.7266 7.38474 22.7266 7.85938V8.71875H18.8164V7.85938C18.8164 7.38474 18.4317 7 17.957 7C17.4824 7 17.0977 7.38474 17.0977 7.85938V8.71875H13.2305V7.85938C13.2305 7.38474 12.8457 7 12.3711 7C11.8965 7 11.5117 7.38474 11.5117 7.85938V8.71875H10.4375C8.54206 8.71875 7 10.2608 7 12.1562V25.5625C7 27.4579 8.54206 29 10.4375 29H17.0117C17.4864 29 17.8711 28.6153 17.8711 28.1406C17.8711 27.666 17.4864 27.2812 17.0117 27.2812H10.4375C9.48978 27.2812 8.71875 26.5102 8.71875 25.5625V12.1562C8.71875 11.2085 9.48978 10.4375 10.4375 10.4375H11.5117V11.2969C11.5117 11.7715 11.8965 12.1562 12.3711 12.1562C12.8457 12.1562 13.2305 11.7715 13.2305 11.2969V10.4375H17.0977V11.2969C17.0977 11.7715 17.4824 12.1562 17.957 12.1562C18.4317 12.1562 18.8164 11.7715 18.8164 11.2969V10.4375H22.7266V11.2969C22.7266 11.7715 23.1113 12.1562 23.5859 12.1562C24.0606 12.1562 24.4453 11.7715 24.4453 11.2969V10.4375H25.5625C26.5102 10.4375 27.2812 11.2085 27.2812 12.1562V17.0547C27.2812 17.5293 27.666 17.9141 28.1406 17.9141C28.6153 17.9141 29 17.5293 29 17.0547V12.1562C29 10.2608 27.4579 8.71875 25.5625 8.71875Z" fill="#188E6B"/>
<path d="M23.8008 18.6016C20.9339 18.6016 18.6016 20.9339 18.6016 23.8008C18.6016 26.6677 20.9339 29 23.8008 29C26.6677 29 29 26.6677 29 23.8008C29 20.9339 26.6677 18.6016 23.8008 18.6016ZM23.8008 27.2812C21.8817 27.2812 20.3203 25.7199 20.3203 23.8008C20.3203 21.8816 21.8817 20.3203 23.8008 20.3203C25.7199 20.3203 27.2812 21.8816 27.2812 23.8008C27.2812 25.7199 25.7199 27.2812 23.8008 27.2812Z" fill="#188E6B"/>
<path d="M25.0469 22.9414H24.6602V22.0391C24.6602 21.5644 24.2754 21.1797 23.8008 21.1797C23.3261 21.1797 22.9414 21.5644 22.9414 22.0391V23.8008C22.9414 24.2754 23.3261 24.6602 23.8008 24.6602H25.0469C25.5215 24.6602 25.9062 24.2754 25.9062 23.8008C25.9062 23.3261 25.5215 22.9414 25.0469 22.9414Z" fill="#188E6B"/>
<path d="M19.8477 16.8828C20.3223 16.8828 20.707 16.4981 20.707 16.0234C20.707 15.5488 20.3223 15.1641 19.8477 15.1641C19.373 15.1641 18.9883 15.5488 18.9883 16.0234C18.9883 16.4981 19.373 16.8828 19.8477 16.8828Z" fill="#188E6B"/>
<path d="M16.1094 20.6211C16.584 20.6211 16.9688 20.2363 16.9688 19.7617C16.9688 19.2871 16.584 18.9023 16.1094 18.9023C15.6348 18.9023 15.25 19.2871 15.25 19.7617C15.25 20.2363 15.6348 20.6211 16.1094 20.6211Z" fill="#188E6B"/>
<path d="M12.3711 16.8828C12.8457 16.8828 13.2305 16.4981 13.2305 16.0234C13.2305 15.5488 12.8457 15.1641 12.3711 15.1641C11.8965 15.1641 11.5117 15.5488 11.5117 16.0234C11.5117 16.4981 11.8965 16.8828 12.3711 16.8828Z" fill="#188E6B"/>
<path d="M12.3711 20.6211C12.8457 20.6211 13.2305 20.2363 13.2305 19.7617C13.2305 19.2871 12.8457 18.9023 12.3711 18.9023C11.8965 18.9023 11.5117 19.2871 11.5117 19.7617C11.5117 20.2363 11.8965 20.6211 12.3711 20.6211Z" fill="#188E6B"/>
<path d="M12.3711 24.3594C12.8457 24.3594 13.2305 23.9746 13.2305 23.5C13.2305 23.0254 12.8457 22.6406 12.3711 22.6406C11.8965 22.6406 11.5117 23.0254 11.5117 23.5C11.5117 23.9746 11.8965 24.3594 12.3711 24.3594Z" fill="#188E6B"/>
<path d="M16.1094 24.3594C16.584 24.3594 16.9688 23.9746 16.9688 23.5C16.9688 23.0254 16.584 22.6406 16.1094 22.6406C15.6348 22.6406 15.25 23.0254 15.25 23.5C15.25 23.9746 15.6348 24.3594 16.1094 24.3594Z" fill="#188E6B"/>
<path d="M16.1094 16.8828C16.584 16.8828 16.9688 16.4981 16.9688 16.0234C16.9688 15.5488 16.584 15.1641 16.1094 15.1641C15.6348 15.1641 15.25 15.5488 15.25 16.0234C15.25 16.4981 15.6348 16.8828 16.1094 16.8828Z" fill="#188E6B"/>
</g>
<defs>
<clipPath id="clip0_937_157">
<rect width="22" height="22" fill="white" transform="translate(7 7)"/>
</clipPath>
</defs>
</svg>
