<svg width="36" height="36" viewBox="0 0 36 36" fill="none" xmlns="http://www.w3.org/2000/svg">
<rect width="36" height="36" rx="18" fill="#F3F3F3"/>
<g clip-path="url(#clip0_937_138)">
<path fill-rule="evenodd" clip-rule="evenodd" d="M21.8861 13.8264C21.5234 13.5084 21.0018 13.5157 20.7025 13.608C20.8985 13.3674 21.3553 13.1699 21.4897 13.146C21.5921 13.1844 21.8861 13.4864 21.8861 13.8264ZM23.0442 12.5096C22.8056 11.2336 19.8403 12.0792 18.347 11.5372C18.3184 11.9092 18.8067 12.5052 19.2738 12.7257C18.4754 13.4187 17.7586 14.815 17.6138 16.5207C17.4697 14.815 16.7528 13.4187 15.9544 12.7258C16.4214 12.5053 16.9102 11.9093 16.8812 11.5374C15.3879 12.0794 12.4226 11.2338 12.1836 12.5098C12.1334 12.78 12.2633 13.1914 12.4036 13.3098C12.4287 13.2242 12.5598 12.9442 12.9732 12.8815C15.0623 12.5658 16.8066 15.7857 15.2321 17.0875C15.2081 17.1075 15.2217 17.1439 15.2541 17.1439H19.9746C20.0066 17.1439 20.0202 17.1074 19.9965 17.0876C18.4216 15.7858 20.1658 12.566 22.255 12.8817C22.6686 12.9444 22.7994 13.2243 22.8246 13.3099C22.965 13.1915 23.0949 12.7801 23.0442 12.5099L23.0442 12.5096ZM23.5523 9.5812C23.5147 9.46064 24.7398 9.4576 24.7398 10.2244C24.7398 10.7382 24.007 10.9815 24.007 11.5148C24.007 11.7631 24.2742 11.9452 24.3562 11.9452C24.1674 11.0892 24.9478 11.5372 25.1586 11.6972C24.7398 10.546 25.6824 10.5532 25.5896 10.0254C25.525 9.65656 24.7056 9.76792 24.4091 9.5812C23.8829 9.25 23.2603 7.96096 22.8501 9.25C23.6149 9.96 23.1698 11.0052 22.1989 11.0052C22.1989 11.0052 22.1935 11.1584 22.2024 11.1706C23.3605 11.1139 23.7642 10.2627 23.5523 9.5812ZM10.0414 11.6972C10.2521 11.5372 11.0324 11.0892 10.8441 11.9452C10.9257 11.9452 11.1929 11.7631 11.1929 11.5148C11.1929 10.9815 10.4601 10.7382 10.4601 10.2244C10.4601 9.4576 11.685 9.46064 11.6475 9.5812C11.436 10.2628 11.8397 11.114 12.9978 11.1706C13.0063 11.1584 13.001 11.0051 13.001 11.0051C12.0304 11.0051 11.5854 9.96 12.3498 9.24992C11.9395 7.96096 11.317 9.24992 10.7907 9.58112C10.4942 9.76792 9.67471 9.65648 9.61023 10.0254C9.51783 10.5534 10.4602 10.5462 10.0414 11.6974L10.0414 11.6972ZM13.3296 13.8264C13.6926 13.5084 14.2144 13.5157 14.5132 13.608C14.318 13.3674 13.8604 13.1699 13.7263 13.146C13.6239 13.1844 13.3295 13.4864 13.3295 13.8264H13.3296ZM18.1648 6.6888L17.6 6L17.035 6.6888L17.5998 7.4136L18.1649 6.6888H18.1648ZM21.3896 8.77144L20.988 8.282L20.5866 8.77144L20.9879 9.24984L21.3897 8.77144H21.3896ZM24.648 22.9204L24.1389 22.3815L23.6296 22.9203L24.1389 23.3931L24.6481 22.9203L24.648 22.9204ZM14.6136 8.77144L14.212 8.282L13.8106 8.77144L14.2121 9.24984L14.6137 8.77144H14.6136ZM13.463 11.1706H14.9614C16.2211 11.1706 16.7879 10.3974 16.9592 9.7268H18.241C18.4124 10.3974 18.9789 11.1706 20.239 11.1706H21.7374C21.7374 11.1706 21.9995 10.815 22.0653 10.6389C22.3019 10.0053 21.9995 9.70968 21.5583 9.70968L20.9879 10.2266L20.4177 9.70984C19.9765 9.70984 19.6741 10.0053 19.9107 10.639C19.941 10.7199 20.0133 10.839 20.0818 10.9436C19.5501 10.8706 18.8714 10.5066 18.7226 9.7268C18.7226 9.7268 19.1154 9.1028 19.2141 8.85024C19.5682 7.942 19.1158 7.5708 18.4542 7.5708L17.6001 8.5748L16.7459 7.5708C16.0843 7.5708 15.632 7.942 15.9866 8.85024C16.0847 9.1028 16.478 9.72688 16.478 9.72688C16.3288 10.5066 15.6502 10.8706 15.1186 10.9437C15.1874 10.8389 15.2594 10.7199 15.2894 10.6389C15.5257 10.0053 15.2241 9.70976 14.7826 9.70976L14.2122 10.2267L13.6418 9.70992C13.2003 9.70992 12.8987 10.0054 13.135 10.639C13.2007 10.815 13.4632 11.1707 13.4632 11.1707L13.463 11.1706ZM28.954 15.8151C28.6648 15.9615 26.9681 16.7563 24.7946 16.4623C24.8172 16.3587 24.8363 16.2543 24.8519 16.1494C26.2985 15.9763 27.4743 15.731 28.2237 15.3142C29.0778 14.8387 29.4514 13.7038 29.0202 12.8595C29.009 12.8382 28.9781 12.8344 28.9626 12.8523C28.7263 13.1243 27.2408 14.7403 24.9002 15.2427C24.8943 15.1215 24.8832 15.0005 24.867 14.8802C26.0038 14.2355 27.1136 13.4927 27.6422 12.8135C28.441 11.7866 28.3675 10.4767 27.6074 9.80888C27.6035 9.80552 27.5989 9.80304 27.5939 9.80159C27.589 9.80014 27.5838 9.79976 27.5787 9.80048C27.5736 9.8012 27.5687 9.803 27.5644 9.80576C27.56 9.80852 27.5563 9.81217 27.5535 9.81648C27.313 10.2133 25.0618 13.8517 22.5903 15.4226C22.5602 15.4418 22.5298 15.4607 22.4991 15.4792C22.4282 15.5222 22.4205 15.6144 22.4807 15.669C22.7658 15.9273 22.9429 16.2866 22.9429 16.6857C22.9429 17.3795 22.4082 17.9565 21.7013 18.0817C21.3421 18.1513 20.8237 18.131 20.3255 17.9663C20.3031 17.9591 20.2799 17.9739 20.2799 17.9964V20.1935C20.2799 20.2289 20.3337 20.2377 20.3463 20.2039C20.6492 19.4017 21.5555 19.2313 21.9519 19.2313C22.0946 20.0886 22.3494 20.7986 22.6803 21.1809C23.2194 21.8019 24.0995 21.7932 24.4811 21.3638C24.4842 21.3603 24.4865 21.3562 24.4877 21.3516C24.489 21.3471 24.4892 21.3424 24.4884 21.3378C24.4876 21.3332 24.4857 21.3288 24.483 21.325C24.4802 21.3212 24.4767 21.3181 24.4726 21.3158C24.2483 21.187 22.9654 20.3993 22.7086 19.1085C22.8094 19.0743 22.9079 19.0337 23.0036 18.9871C23.4178 19.6725 24.0206 20.2829 24.5058 20.5161C25.321 20.907 26.0673 20.7169 26.3982 20.1445C26.4102 20.1243 26.3955 20.0992 26.3712 20.097C25.867 20.0567 24.3195 19.6132 23.6606 18.5327C23.7368 18.4635 23.8096 18.3906 23.8787 18.3143C24.5683 18.8393 25.543 19.3033 26.241 19.398C27.0576 19.509 27.9829 19.2484 28.0053 18.2988C28.0057 18.2798 27.9886 18.2642 27.9685 18.2654C27.6781 18.283 25.7561 18.3666 24.3865 17.5804C24.4341 17.4899 24.4784 17.3978 24.5195 17.3042C24.5195 17.3042 26.589 17.7934 27.5695 17.6314C28.5439 17.4706 29.1146 16.7442 29.0045 15.8405C29.0013 15.8181 28.975 15.8047 28.9541 15.8154L28.954 15.8151ZM10.6806 17.3039C10.7217 17.3975 10.7662 17.4897 10.8139 17.5802C9.44471 18.3659 7.52351 18.283 7.23183 18.2651C7.21135 18.264 7.19423 18.2803 7.19471 18.299C7.21751 19.2482 8.14247 19.5088 8.95911 19.3978C9.65671 19.303 10.6319 18.839 11.3213 18.3142C11.3905 18.3904 11.4632 18.4632 11.5394 18.5326C10.8802 19.613 9.33295 20.0566 8.82879 20.0968C8.80439 20.0992 8.79015 20.1242 8.80175 20.1444C9.13271 20.7168 9.87895 20.907 10.6946 20.516C11.1794 20.2828 11.7822 19.6724 12.1962 18.987C12.292 19.0335 12.3906 19.0741 12.4914 19.1084C12.2346 20.3992 10.9516 21.1868 10.7274 21.3158C10.7233 21.3181 10.7197 21.3212 10.717 21.325C10.7143 21.3288 10.7124 21.3332 10.7116 21.3378C10.7108 21.3424 10.711 21.3471 10.7123 21.3516C10.7135 21.3561 10.7157 21.3603 10.7188 21.3638C11.1004 21.7931 11.9809 21.8018 12.5199 21.1808C12.8509 20.7986 13.1054 20.0885 13.2479 19.2312C13.6447 19.2312 14.5507 19.4016 14.8535 20.2038C14.8666 20.2376 14.9203 20.2288 14.9203 20.1934V17.9963C14.9203 17.9739 14.8967 17.959 14.8743 17.9662C14.3763 18.131 13.8578 18.151 13.499 18.0814C12.7918 17.9564 12.257 17.3794 12.257 16.6857C12.257 16.2868 12.4346 15.927 12.719 15.6689C12.7798 15.6145 12.7716 15.5223 12.7013 15.4793C12.6704 15.4608 12.6397 15.442 12.6093 15.4227C10.1392 13.8527 7.88927 10.2168 7.64671 9.81744C7.64386 9.81302 7.64011 9.80927 7.63569 9.80643C7.63127 9.80359 7.62629 9.80172 7.62109 9.80096C7.61589 9.80021 7.61059 9.80057 7.60554 9.80203C7.6005 9.8035 7.59582 9.80602 7.59183 9.80944C6.83279 10.4777 6.75903 11.787 7.55783 12.8137C8.08647 13.4929 9.19623 14.2357 10.3326 14.8803C10.3166 15.0006 10.3057 15.1215 10.2998 15.2427C7.96119 14.7408 6.47679 13.1275 6.23823 12.8536C6.22223 12.8349 6.19063 12.8386 6.17983 12.86C5.74943 13.7048 6.12303 14.8388 6.97631 15.3142C7.72575 15.731 8.90167 15.9764 10.3482 16.1494C10.3638 16.2544 10.3829 16.3587 10.4054 16.4624C8.23415 16.756 6.53831 15.963 6.24679 15.8155C6.22519 15.8045 6.19895 15.8182 6.19623 15.841C6.08639 16.7446 6.65671 17.4703 7.63111 17.6312C8.61135 17.7932 10.6807 17.304 10.6807 17.304L10.6806 17.3039ZM24.139 24.0871L23.3849 23.4938C23.0839 23.673 22.8628 23.9575 22.7769 24.291C22.3233 24.3545 21.0868 24.0798 21.207 23.8977C22.5622 21.9915 21.5257 20.8566 20.2798 20.9198V22.1998C20.2798 22.611 19.921 22.9442 19.479 22.9442H18.6187C18.0016 22.9442 17.5998 23.5645 17.5998 23.5645C17.5998 23.5645 17.1981 22.9441 16.581 22.9441H15.7207C15.2783 22.9441 14.9203 22.6109 14.9203 22.1998V20.9198C13.6745 20.8566 12.6371 21.9914 13.9927 23.8976C14.1119 24.0779 12.8409 24.3666 12.2447 24.2936C12.0876 24.1307 11.861 24.028 11.6074 24.028C11.4995 24.0281 11.3925 24.0473 11.2914 24.0848C11.2914 24.0848 8.94863 21.8666 8.90575 21.845L8.92495 21.8002C9.05855 21.5506 8.85431 21.2786 8.72519 21.2978C8.87519 21.1178 8.88215 20.3302 8.04999 20.1479C8.07439 20.3062 8.08679 20.629 8.08679 20.629C8.08679 20.629 7.44455 20.2818 7.12199 20.5815C6.83863 20.917 7.23183 21.5255 7.23183 21.5255C7.23183 21.5255 6.90319 21.5335 6.74119 21.5198C6.97935 22.3254 7.77823 22.2683 7.95103 22.1094C7.93983 22.2374 8.22863 22.42 8.47343 22.2736L8.58095 22.2216C8.59991 22.247 10.8816 24.4027 10.8816 24.4027C10.7768 24.5582 10.727 24.7491 10.7614 24.9526C10.8155 25.2706 11.0803 25.5342 11.4187 25.6027C11.6577 25.6507 11.8823 25.6043 12.0625 25.4989L12.6665 26.0594C12.7201 26.1082 12.7929 26.1386 12.874 26.1329C13.0218 26.123 13.1324 26.0033 13.1212 25.8659C13.1164 25.8039 13.0847 25.7507 13.041 25.7103C13.0314 25.6998 12.4258 25.1375 12.4258 25.1375C12.9254 24.7874 13.8562 24.5406 14.6287 24.5406C14.7644 24.5406 14.8282 24.4257 14.7815 24.3131C14.4315 23.4715 15.1839 22.8618 15.9623 23.3581C16.3018 23.5745 16.6467 24.0008 16.9066 24.7121C15.6295 25.0213 14.026 25.8732 13.7016 26.8031C13.5766 27.1622 13.9893 27.6516 14.4904 27.7501C14.4948 27.751 14.4993 27.7511 14.5037 27.7503C14.5082 27.7495 14.5124 27.7479 14.5161 27.7454C14.5199 27.743 14.5232 27.7398 14.5257 27.7361C14.5282 27.7324 14.53 27.7282 14.531 27.7238C14.7927 26.3356 16.2857 25.3011 17.0625 25.1254C17.1014 25.23 17.0887 25.1962 17.1278 25.3003C16.2817 25.7005 15.4612 26.5443 15.227 27.5477C15.1194 28.0071 15.6318 28.4213 16.0547 28.5346C16.076 28.5402 16.0969 28.5255 16.0981 28.505C16.1785 27.2362 16.7387 26.1586 17.2406 25.6685C17.2544 25.7643 17.2647 25.8607 17.2716 25.9573C17.2716 25.9573 16.7577 27.3891 16.7577 28.4338C16.7577 28.9199 17.4801 29.2592 17.5867 29.3066C17.7201 29.2592 18.4419 28.9199 18.4419 28.4338C18.4419 27.389 17.9282 25.9572 17.9282 25.9572C17.9352 25.8606 17.9456 25.7643 17.9595 25.6684C18.4611 26.1588 19.0217 27.2358 19.1018 28.5046C19.1022 28.5096 19.1038 28.5145 19.1063 28.5188C19.1088 28.5231 19.1123 28.5268 19.1164 28.5297C19.1205 28.5325 19.1252 28.5345 19.1301 28.5353C19.1351 28.5362 19.1401 28.5359 19.145 28.5346C19.5685 28.4213 20.0804 28.0071 19.9733 27.5477C19.7386 26.5445 18.9185 25.7005 18.0725 25.3003C18.1111 25.1962 18.0983 25.2299 18.1374 25.1254C18.9146 25.301 20.407 26.3355 20.6689 27.7238C20.6708 27.7326 20.6761 27.7403 20.6837 27.7452C20.6913 27.7501 20.7006 27.7518 20.7094 27.7499C21.2102 27.6515 21.6235 27.1619 21.4978 26.803C21.1742 25.873 19.5703 25.0211 18.293 24.7119C18.5534 24.0007 18.8983 23.5743 19.2378 23.3579C20.0158 22.8616 20.7682 23.4713 20.4182 24.313C20.3715 24.4255 20.4349 24.5404 20.571 24.5404C21.4449 24.5404 22.5214 24.856 22.9474 25.2794C23.2197 25.6878 23.7226 25.9491 24.2903 25.8932C24.9353 25.83 25.4612 25.3455 25.5338 24.7465C25.5973 24.2217 25.3258 23.7505 24.8932 23.4937L24.1388 24.087L24.139 24.0871ZM18.5814 20.2638C18.85 20.1641 19.2711 20.2447 19.2568 20.6326C19.2534 20.7206 19.3766 20.7206 19.3856 20.6307C19.466 20.0499 19.0736 19.8827 18.6629 19.9507C18.6118 19.751 18.5701 19.5765 18.5226 19.4035C18.4846 19.2635 18.4707 19.0006 18.6327 19.0006C18.7201 19.0006 18.685 19.2451 18.6767 19.3505C18.6695 19.4429 18.7027 19.4988 18.7778 19.5014C18.8245 19.5034 18.8829 19.4437 18.9178 19.4041C19.1528 19.1382 19.2074 18.7267 18.932 18.5282C18.7016 18.3616 18.1246 18.4856 17.9661 18.723C17.9421 18.6335 17.8277 18.4859 17.7728 18.4217C17.7194 18.3589 17.7056 18.3159 17.7794 18.2609C17.8142 18.2342 17.9194 18.1295 17.9194 18.0215C17.9194 17.9577 17.8698 17.8398 17.7125 17.8398C17.5883 17.8398 17.4503 17.9257 17.4503 18.1174C17.4503 18.16 17.4607 18.2056 17.4882 18.2547C17.4098 18.2418 17.1966 18.247 17.0872 18.2741L18.6002 22.4261C19.0334 22.2123 19.3509 21.8738 19.3509 21.5106C19.3509 21.201 18.8949 21.3037 18.6734 21.5452C18.6022 21.1526 18.5389 20.7902 18.4696 20.4289C18.4507 20.3292 18.5014 20.2934 18.5814 20.2634V20.2638ZM16.4418 17.4432L16.7598 18.3264C16.4876 18.3912 16.0498 18.5896 16.0498 18.8524C16.0498 19.2023 16.669 19.4302 17.027 19.4028C17.0092 19.4826 17.0297 19.5538 17.0854 19.6188C16.9554 19.6188 16.7103 19.6793 16.6298 19.766C16.44 19.5892 16.143 19.5248 16.0018 19.6324C15.86 19.7409 15.8558 19.9246 16.0038 20.1322C16.107 20.276 16.1458 20.4178 16.0298 20.5844C16.4612 20.5844 16.3023 20.0234 16.4714 20.0234C16.4492 20.1322 16.4627 20.2581 16.5118 20.3977C16.5443 20.4905 16.5443 20.5564 16.4886 20.6457C16.3494 20.8682 16.133 21.3793 16.1622 21.8415C16.0208 21.8407 15.9489 21.8062 15.9987 21.6129C16.0173 21.541 15.9729 21.4897 15.9141 21.5783C15.8491 21.6761 15.8178 21.8431 15.8178 21.9145C15.8178 22.326 16.3082 22.4089 16.4952 22.3218C17.0366 22.8458 18.1 22.706 18.456 22.5302L16.5838 17.3932C16.5455 17.2962 16.4082 17.3426 16.4418 17.4434V17.4432ZM16.377 21.6748C16.3383 21.4634 16.6326 21.0854 17.0069 20.7206C16.9272 20.9583 16.9767 21.3679 17.133 21.509C16.8614 21.509 16.539 21.56 16.377 21.6748H16.377Z" fill="#188E6B"/>
</g>
<defs>
<clipPath id="clip0_937_138">
<rect width="24" height="24" fill="white" transform="translate(6 6)"/>
</clipPath>
</defs>
</svg>
