<svg width="36" height="36" viewBox="0 0 36 36" fill="none" xmlns="http://www.w3.org/2000/svg">
<rect width="36" height="36" rx="18" fill="#F3F3F3"/>
<path d="M17.5 6.73123L8.125 10.1406V18.3875C8.12725 19.9971 8.5091 21.5834 9.23955 23.0177C9.96999 24.452 11.0284 25.6938 12.3289 26.6422L17.5 30.4031L22.6711 26.6422C23.9716 25.6938 25.03 24.452 25.7605 23.0177C26.4909 21.5834 26.8728 19.9971 26.875 18.3875V10.1406L17.5 6.73123ZM25.3125 18.3875C25.3103 19.7506 24.9869 21.0941 24.3683 22.3088C23.7497 23.5236 22.8535 24.5754 21.7523 25.3789L17.5 28.4719L13.2477 25.3789C12.1465 24.5754 11.2503 23.5236 10.6317 22.3088C10.0131 21.0941 9.68966 19.7506 9.6875 18.3875V11.2344L17.5 8.39373L25.3125 11.2344V18.3875Z" fill="#188E6B"/>
<path d="M14.1462 16.5805L13.0415 17.6852L16.5235 21.1672L21.9587 15.732L20.854 14.6273L16.5235 18.9578L14.1462 16.5805Z" fill="#188E6B"/>
</svg>
