<svg width="36" height="36" viewBox="0 0 36 36" fill="none" xmlns="http://www.w3.org/2000/svg">
<rect width="36" height="36" rx="18" fill="#F3F3F3"/>
<g clip-path="url(#clip0_937_146)">
<path d="M10.4032 28.0109L9.95579 24.8496C9.8921 24.3996 9.47526 24.0855 9.02574 24.1501C8.57571 24.2138 8.26257 24.6302 8.32626 25.0802L8.42644 25.7881C7.57209 24.7338 6.89182 23.5382 6.42056 22.2496C3.0847 13.1291 11.1409 3.93063 20.5337 5.93426C20.978 6.02884 21.4153 5.74564 21.5102 5.30116C21.605 4.85668 21.3216 4.41949 20.8771 4.32464C10.2707 2.06174 1.07109 12.4152 4.87491 22.815C5.40783 24.2722 6.17676 25.6249 7.14275 26.8185L6.3476 26.6658C5.90114 26.5801 5.46993 26.8723 5.38419 27.3186C5.29844 27.7649 5.59074 28.1963 6.03703 28.282L9.36291 28.9209C9.96188 29.0899 10.4826 28.5713 10.4032 28.0109Z" fill="#188E6B"/>
<path d="M31.1428 13.1957C30.6098 11.7385 29.8409 10.3857 28.8749 9.19219L29.6701 9.34492C30.1162 9.4305 30.5478 9.13837 30.6335 8.69208C30.7193 8.24573 30.427 7.81441 29.9807 7.72867L26.6542 7.08959C26.0628 6.92315 25.5339 7.43055 25.6146 7.99962L26.0619 11.161C26.1201 11.5719 26.4722 11.8687 26.8757 11.8687C27.3787 11.8687 27.7614 11.4242 27.6915 10.9304L27.5913 10.2224C28.4456 11.2768 29.1259 12.4724 29.5972 13.7609C31.9334 20.1485 28.6475 27.2492 22.2724 29.5896C20.0914 30.3903 17.7441 30.5585 15.4841 30.0763C15.0398 29.9815 14.6024 30.2649 14.5075 30.7094C14.4127 31.1539 14.6962 31.5911 15.1406 31.6859C17.7047 32.233 20.3669 32.0423 22.8396 31.1346C30.0832 28.4755 33.7968 20.4519 31.1428 13.1957Z" fill="#188E6B"/>
<path d="M26.5393 18.0476C26.5393 13.336 22.7126 9.50281 18.0089 9.50281C13.3052 9.50281 9.47839 13.336 9.47839 18.0476C9.47839 22.7592 13.3052 26.5924 18.0089 26.5924C22.7126 26.5924 26.5393 22.7592 26.5393 18.0476ZM11.1242 18.0476C11.1242 14.2435 14.2127 11.1486 18.0089 11.1486C21.8051 11.1486 24.8935 14.2435 24.8935 18.0476C24.8935 21.8517 21.8051 24.9466 18.0089 24.9466C14.2127 24.9466 11.1242 21.8517 11.1242 18.0476Z" fill="#188E6B"/>
<path d="M15.499 22.7435C15.499 23.1574 15.8346 23.493 16.2485 23.493C16.6624 23.493 16.998 23.1574 16.998 22.7435V21.6193H19.2465C19.6605 21.6193 19.996 21.2837 19.996 20.8698C19.996 20.4559 19.6605 20.1203 19.2465 20.1203H16.998V18.996H19.2465C20.8996 18.996 22.2445 17.6511 22.2445 15.998C22.2445 14.3449 20.8996 13 19.2465 13H16.2485C15.8346 13 15.499 13.3356 15.499 13.7495V20.1203H14.7495C14.3356 20.1203 14 20.4559 14 20.8698C14 21.2837 14.3356 21.6193 14.7495 21.6193H15.499V22.7435ZM20.7455 15.998C20.7455 16.8246 20.0731 17.497 19.2465 17.497H16.998V14.499H19.2465C20.073 14.499 20.7455 15.1714 20.7455 15.998Z" fill="#188E6B"/>
</g>
<defs>
<clipPath id="clip0_937_146">
<rect width="28" height="28" fill="white" transform="translate(4 4)"/>
</clipPath>
</defs>
</svg>
