<svg width="36" height="36" viewBox="0 0 36 36" fill="none" xmlns="http://www.w3.org/2000/svg">
<rect width="36" height="36" rx="18" fill="#F3F3F3"/>
<g clip-path="url(#clip0_937_106)">
<path d="M7.36253 21.7193C7.76155 21.6092 7.99577 21.1965 7.88569 20.7975C5.84615 13.4062 12.1816 6.36917 19.7648 7.65316C20.1728 7.72225 20.5598 7.44742 20.6289 7.03932C20.698 6.63121 20.4231 6.24428 20.015 6.17519C11.3255 4.70373 4.11695 12.775 6.44069 21.1962C6.55101 21.5961 6.96441 21.8292 7.36253 21.7193Z" fill="#188E6B"/>
<path d="M29.8253 15.9855C29.7562 15.5773 29.3694 15.3026 28.9612 15.3716C28.5531 15.4407 28.2783 15.8276 28.3474 16.2357C29.6293 23.8063 22.6001 30.1555 15.203 28.1144C14.8041 28.0042 14.3913 28.2385 14.2811 28.6375C14.171 29.0365 14.4052 29.4493 14.8042 29.5594C23.2187 31.8812 31.2976 24.68 29.8253 15.9855Z" fill="#188E6B"/>
<path d="M25.8714 14.251C28.1444 14.251 29.9937 12.4017 29.9937 10.1287C29.9937 7.8557 28.1444 6.00644 25.8714 6.00644C23.5984 6.00644 21.7491 7.8557 21.7491 10.1287C21.7491 12.4017 23.5984 14.251 25.8714 14.251ZM25.8714 7.50544C27.3179 7.50544 28.4947 8.68226 28.4947 10.1287C28.4947 11.5751 27.3179 12.752 25.8714 12.752C24.4249 12.752 23.2481 11.5751 23.2481 10.1287C23.2481 8.68226 24.4249 7.50544 25.8714 7.50544Z" fill="#188E6B"/>
<path d="M10.1319 22.4955C8.27217 22.4955 6.75916 24.0085 6.75916 25.8682C6.75916 27.728 8.27217 29.241 10.1319 29.241C11.9917 29.241 13.5047 27.728 13.5047 25.8682C13.5047 24.0085 11.9917 22.4955 10.1319 22.4955ZM10.1319 27.742C9.09873 27.742 8.25816 26.9014 8.25816 25.8682C8.25816 24.835 9.09873 23.9945 10.1319 23.9945C11.1651 23.9945 12.0057 24.835 12.0057 25.8682C12.0057 26.9014 11.1651 27.742 10.1319 27.742Z" fill="#188E6B"/>
<path d="M15.0036 22.4955C15.0036 22.9094 15.3392 23.245 15.7531 23.245C16.1671 23.245 16.5026 22.9094 16.5026 22.4955V21.3712H18.7512C19.1651 21.3712 19.5007 21.0356 19.5007 20.6217C19.5007 20.2078 19.1651 19.8722 18.7512 19.8722H16.5026V18.748H18.7512C20.4043 18.748 21.7492 17.4031 21.7492 15.75C21.7492 14.0968 20.4043 12.752 18.7512 12.752H15.7531C15.3392 12.752 15.0036 13.0875 15.0036 13.5015V19.8722H14.2541C13.8402 19.8722 13.5046 20.2078 13.5046 20.6217C13.5046 21.0356 13.8402 21.3712 14.2541 21.3712H15.0036V22.4955ZM20.2502 15.75C20.2502 16.5765 19.5777 17.249 18.7512 17.249H16.5026V14.251H18.7512C19.5777 14.251 20.2502 14.9234 20.2502 15.75Z" fill="#188E6B"/>
</g>
<defs>
<clipPath id="clip0_937_106">
<rect width="24" height="24" fill="white" transform="translate(6 6)"/>
</clipPath>
</defs>
</svg>
