<svg width="36" height="36" viewBox="0 0 36 36" fill="none" xmlns="http://www.w3.org/2000/svg">
<rect width="36" height="36" rx="18" fill="#F3F3F3"/>
<g clip-path="url(#clip0_937_178)">
<path d="M20.0625 11.125H11.8125C11.433 11.125 11.125 11.433 11.125 11.8125C11.125 12.192 11.433 12.5 11.8125 12.5H20.0625C20.442 12.5 20.75 12.192 20.75 11.8125C20.75 11.433 20.442 11.125 20.0625 11.125Z" fill="#188E6B"/>
<path d="M17.3125 13.875H11.8125C11.433 13.875 11.125 14.183 11.125 14.5625C11.125 14.942 11.433 15.25 11.8125 15.25H17.3125C17.692 15.25 18 14.942 18 14.5625C18 14.183 17.692 13.875 17.3125 13.875Z" fill="#188E6B"/>
<path d="M22.125 7H9.75C8.23337 7 7 8.23337 7 9.75V23.5C7 23.7668 7.154 24.0101 7.396 24.1229C7.48812 24.1655 7.5885 24.1875 7.6875 24.1875C7.84562 24.1875 8.00238 24.1325 8.1275 24.028L12.0614 20.75H22.125C23.6416 20.75 24.875 19.5166 24.875 18V9.75C24.875 8.23337 23.6416 7 22.125 7ZM23.5 18C23.5 18.7576 22.884 19.375 22.125 19.375H11.8125C11.6516 19.375 11.4963 19.4314 11.3725 19.5345L8.375 22.0329V9.75C8.375 8.99238 8.991 8.375 9.75 8.375H22.125C22.884 8.375 23.5 8.99238 23.5 9.75V18Z" fill="#188E6B"/>
<path d="M26.25 12.5C25.8705 12.5 25.5625 12.808 25.5625 13.1875C25.5625 13.567 25.8705 13.875 26.25 13.875C27.009 13.875 27.625 14.4924 27.625 15.25V26.8811L25.304 25.0249C25.183 24.9286 25.0304 24.875 24.875 24.875H15.25C14.491 24.875 13.875 24.2576 13.875 23.5V22.8125C13.875 22.433 13.567 22.125 13.1875 22.125C12.808 22.125 12.5 22.433 12.5 22.8125V23.5C12.5 25.0166 13.7334 26.25 15.25 26.25H24.633L27.8821 28.8501C28.0073 28.9491 28.1599 29 28.3125 29C28.4129 29 28.5146 28.978 28.6109 28.9326C28.8487 28.8171 29 28.5765 29 28.3125V15.25C29 13.7334 27.7666 12.5 26.25 12.5Z" fill="#188E6B"/>
</g>
<defs>
<clipPath id="clip0_937_178">
<rect width="22" height="22" fill="white" transform="translate(7 7)"/>
</clipPath>
</defs>
</svg>
