<svg width="156" height="40" viewBox="0 0 156 40" fill="none" xmlns="http://www.w3.org/2000/svg">
<path d="M17.2219 2.5227L31.9733 6.84446V23.0783C31.9733 24.6032 31.3456 26.3665 29.7582 28.3447C28.5422 29.8601 26.7956 31.4582 24.5101 33.0739C21.4396 35.2444 18.393 36.7528 17.2219 37.3024C16.0507 36.7528 13.004 35.2444 9.93352 33.0738C7.64799 31.4582 5.9014 29.8601 4.6854 28.3447C3.098 26.3664 2.47029 24.6031 2.47029 23.0783V6.84451L17.2219 2.5227Z" stroke="#188E6B" stroke-width="4.94058" stroke-linejoin="round"/>
<path d="M17.0606 24.0652H14.4668L11.86 19.2789V24.0652H9.53857V13.3611H11.86V17.8568L14.3371 13.3611H16.9309L14.0518 18.5602L17.0606 24.0652Z" fill="#188E6B"/>
<path d="M22.5966 13.3611H24.9051V24.0652H22.5966V19.9518H20.0417V24.0652H17.7202V13.3611H20.0417V17.3216H22.5966V13.3611Z" fill="#188E6B"/>
<path d="M51.4893 23.2437H48.7399L44.4168 17.5719V23.2437H42.0305V11.1392H44.4168V16.4825L48.5669 11.1392H51.3164L46.8377 17.0185L51.4893 23.2437ZM57.8741 11.1392C59.0384 11.1392 60.0183 11.5312 60.8138 12.3151C61.6092 13.099 62.0069 14.0616 62.0069 15.2029C62.0069 16.3441 61.6092 17.3067 60.8138 18.0906C60.0183 18.8745 59.0384 19.2665 57.8741 19.2665H55.7472V23.2437H53.3609V11.1392H57.8741ZM57.8741 17.0358C58.3813 17.0358 58.8021 16.8629 59.1364 16.517C59.4707 16.1597 59.6379 15.7216 59.6379 15.2029C59.6379 14.6726 59.4707 14.2345 59.1364 13.8887C58.8021 13.5428 58.3813 13.3699 57.8741 13.3699H55.7472V17.0358H57.8741ZM66.6385 20.9611H71.7396V23.2437H64.2522V11.1392H71.6532V13.4218H66.6385V15.9983H71.2209V18.2463H66.6385V20.9611ZM83.4165 20.9611H84.7134V25.5608H82.3271V23.2437H75.6351V25.5608H73.2488V20.9611H74.4246C75.0932 20.0273 75.4276 18.6613 75.4276 16.8629V11.1392H83.4165V20.9611ZM76.9838 20.9611H81.0302V13.3699H77.8139V16.8975C77.8139 18.6497 77.5372 20.0043 76.9838 20.9611ZM94.0006 23.2437V15.8599L88.813 23.2437H86.9973V11.1392H89.3836V18.5402L94.5712 11.1392H96.3869V23.2437H94.0006ZM107.33 11.1392V13.4218H104.062V23.2437H101.676V13.4218H98.4248V11.1392H107.33ZM116.257 23.2437L115.531 21.0649H110.707L109.98 23.2437H107.404L111.64 11.1392H114.597L118.851 23.2437H116.257ZM111.467 18.8342H114.787L113.127 13.8887L111.467 18.8342Z" fill="#454545"/>
<path d="M132.615 11.1392H134.984V23.2437H132.615V18.229H128.119V23.2437H125.733V11.1392H128.119V15.9464H132.615V11.1392ZM140.311 20.9611H145.412V23.2437H137.924V11.1392H145.325V13.4218H140.311V15.9983H144.893V18.2463H140.311V20.9611ZM155.792 11.1392V13.4218H152.524V23.2437H150.137V13.4218H146.886V11.1392H155.792Z" fill="#188E6B"/>
</svg>
