<svg width="127" height="33" viewBox="0 0 127 33" fill="none" xmlns="http://www.w3.org/2000/svg">
<path d="M13.8127 19.4838H11.7127L9.60216 15.6087V19.4838H7.72266V10.8175H9.60216V14.4574L11.6077 10.8175H13.7077L11.3767 15.0269L13.8127 19.4838Z" fill="#188E6B"/>
<path d="M18.2947 10.8175H20.1637V19.4838H18.2947V16.1535H16.2262V19.4838H14.3467V10.8175H16.2262V14.024H18.2947V10.8175Z" fill="#188E6B"/>
<path d="M41.6868 19.4838H39.4608L35.9608 14.8918V19.4838H34.0288V9.68378H35.9608V14.0098L39.3208 9.68378H41.5468L37.9208 14.4438L41.6868 19.4838Z" fill="#454545"/>
<path d="M46.8561 9.68378C47.7988 9.68378 48.5921 10.0011 49.2361 10.6358C49.8801 11.2704 50.2021 12.0498 50.2021 12.9738C50.2021 13.8978 49.8801 14.6771 49.2361 15.3118C48.5921 15.9464 47.7988 16.2638 46.8561 16.2638H45.1341V19.4838H43.2021V9.68378H46.8561ZM46.8561 14.4578C47.2668 14.4578 47.6074 14.3178 47.8781 14.0378C48.1488 13.7484 48.2841 13.3938 48.2841 12.9738C48.2841 12.5444 48.1488 12.1898 47.8781 11.9098C47.6074 11.6298 47.2668 11.4898 46.8561 11.4898H45.1341V14.4578H46.8561Z" fill="#454545"/>
<path d="M53.9519 17.6358H58.0819V19.4838H52.0199V9.68378H58.0119V11.5318H53.9519V13.6178H57.6619V15.4378H53.9519V17.6358Z" fill="#454545"/>
<path d="M67.5357 17.6358H68.5857V21.3598H66.6537V19.4838H61.2357V21.3598H59.3037V17.6358H60.2557C60.7971 16.8798 61.0677 15.7738 61.0677 14.3178V9.68378H67.5357V17.6358ZM62.3277 17.6358H65.6037V11.4898H62.9997V14.3458C62.9997 15.7644 62.7757 16.8611 62.3277 17.6358Z" fill="#454545"/>
<path d="M76.1048 19.4838V13.5058L71.9048 19.4838H70.4348V9.68378H72.3668V15.6758L76.5668 9.68378H78.0368V19.4838H76.1048Z" fill="#454545"/>
<path d="M86.8967 9.68378V11.5318H84.2507V19.4838H82.3187V11.5318H79.6867V9.68378H86.8967Z" fill="#454545"/>
<path d="M94.1244 19.4838L93.5364 17.7198H89.6304L89.0424 19.4838H86.9564L90.3864 9.68378H92.7804L96.2244 19.4838H94.1244ZM90.2464 15.9138H92.9344L91.5904 11.9098L90.2464 15.9138Z" fill="#454545"/>
<path d="M107.368 9.68378H109.286V19.4838H107.368V15.4238H103.728V19.4838H101.796V9.68378H103.728V13.5758H107.368V9.68378Z" fill="#188E6B"/>
<path d="M113.598 17.6358H117.728V19.4838H111.666V9.68378H117.658V11.5318H113.598V13.6178H117.308V15.4378H113.598V17.6358Z" fill="#188E6B"/>
<path d="M126.132 9.68378V11.5318H123.486V19.4838H121.554V11.5318H118.922V9.68378H126.132Z" fill="#188E6B"/>
<path fill-rule="evenodd" clip-rule="evenodd" d="M1.08792 3.68917C0.443966 3.87315 0 4.46173 0 5.13145V19.4004C0 19.7969 0.0713128 20.1902 0.210533 20.5614C1.98903 25.3041 5.66487 29.0902 10.3529 31.008L14 32.5L17.3638 31.1239C22.2325 29.1322 26.0499 25.2002 27.8969 20.2749C27.9651 20.0931 28 19.9006 28 19.7064V5.13145C28 4.46173 27.556 3.87315 26.9121 3.68917L14 0L1.08792 3.68917ZM5.07507 6.63629C4.43754 6.8246 4 7.41007 4 8.07484V18.3403C4 18.6241 4.04949 18.9057 4.14626 19.1725C5.41939 22.6824 8.09697 25.5034 11.5358 26.9578L14 28L16.2624 27.0431C19.8299 25.5343 22.6077 22.6077 23.9285 18.9664C23.9758 18.836 24 18.6982 24 18.5595V8.07484C24 7.41007 23.5625 6.8246 22.9249 6.63629L14 4L5.07507 6.63629Z" fill="#188E6B"/>
</svg>
