<svg width="30" height="30" viewBox="0 0 30 30" fill="none" xmlns="http://www.w3.org/2000/svg">
<circle cx="15" cy="15" r="15" fill="white"/>
<path d="M12.9779 8.93377L12.2664 9.17094V9.17094L12.9779 8.93377ZM13.9757 11.9272L13.2642 12.1644L13.9757 11.9272ZM13.4743 13.1379L13.8097 13.8087H13.8097L13.4743 13.1379ZM11.9753 13.8874L11.6398 13.2166C11.2798 13.3966 11.1261 13.8287 11.2915 14.1956L11.9753 13.8874ZM16.1126 18.0247L15.8044 18.7085C16.1713 18.8739 16.6034 18.7202 16.7834 18.3602L16.1126 18.0247ZM16.8621 16.5257L16.1913 16.1903V16.1903L16.8621 16.5257ZM18.0728 16.0243L17.8356 16.7358L18.0728 16.0243ZM21.0662 17.0221L20.8291 17.7336H20.8291L21.0662 17.0221ZM10.25 7.5C8.73122 7.5 7.5 8.73122 7.5 10.25H9C9 9.55964 9.55964 9 10.25 9V7.5ZM12.0292 7.5H10.25V9H12.0292V7.5ZM13.6894 8.6966C13.4512 7.982 12.7825 7.5 12.0292 7.5V9C12.1368 9 12.2324 9.06886 12.2664 9.17094L13.6894 8.6966ZM14.6873 11.69L13.6894 8.6966L12.2664 9.17094L13.2642 12.1644L14.6873 11.69ZM13.8097 13.8087C14.5886 13.4192 14.9626 12.5162 14.6873 11.69L13.2642 12.1644C13.3036 12.2824 13.2501 12.4114 13.1389 12.467L13.8097 13.8087ZM12.3107 14.5582L13.8097 13.8087L13.1389 12.467L11.6398 13.2166L12.3107 14.5582ZM16.4209 17.341C14.7541 16.5895 13.4105 15.2459 12.659 13.5791L11.2915 14.1956C12.1934 16.1959 13.8041 17.8066 15.8044 18.7085L16.4209 17.341ZM16.1913 16.1903L15.4418 17.6893L16.7834 18.3602L17.533 16.8611L16.1913 16.1903ZM18.31 15.3128C17.4838 15.0374 16.5808 15.4114 16.1913 16.1903L17.533 16.8611C17.5886 16.7499 17.7176 16.6964 17.8356 16.7358L18.31 15.3128ZM21.3034 16.3106L18.31 15.3128L17.8356 16.7358L20.8291 17.7336L21.3034 16.3106ZM22.5 17.9708C22.5 17.2175 22.018 16.5488 21.3034 16.3106L20.8291 17.7336C20.9311 17.7676 21 17.8632 21 17.9708H22.5ZM22.5 19.75V17.9708H21V19.75H22.5ZM19.75 22.5C21.2688 22.5 22.5 21.2688 22.5 19.75H21C21 20.4404 20.4404 21 19.75 21V22.5ZM19.5 22.5H19.75V21H19.5V22.5ZM7.5 10.5C7.5 17.1274 12.8726 22.5 19.5 22.5V21C13.701 21 9 16.299 9 10.5H7.5ZM7.5 10.25V10.5H9V10.25H7.5Z" fill="#188E6B"/>
</svg>
