<svg width="507" height="601" viewBox="0 0 507 601" fill="none" xmlns="http://www.w3.org/2000/svg">
<path d="M494.447 71.4662L258.565 0.743033C255.265 -0.247678 251.743 -0.247678 248.44 0.743033L12.5557 71.4662C5.10331 73.7 0 80.5551 0 88.3306V347.648C0 381.377 13.6621 415.904 40.6068 450.27C61.1869 476.517 89.6573 502.873 125.229 528.607C184.985 571.836 243.827 598.355 246.303 599.462C248.593 600.487 251.046 601 253.501 601C255.955 601 258.41 600.488 260.7 599.462C263.176 598.355 322.016 571.836 381.772 528.607C417.343 502.873 445.813 476.517 466.393 450.27C493.338 415.905 507 381.378 507 347.648V88.3306C507.001 80.5551 501.899 73.7 494.447 71.4662ZM471.765 347.648C471.765 407.339 411.838 463.31 361.564 499.754C316.493 532.425 270.784 555.608 253.502 563.936C236.22 555.608 190.51 532.425 145.439 499.754C95.1647 463.31 35.2357 407.339 35.2357 347.648V101.43L253.501 35.9896L471.765 101.43V347.648Z" fill="#E2E2E2" fill-opacity="0.44"/>
</svg>
